<svg xmlns="http://www.w3.org/2000/svg" width="256" height="256" viewBox="0 0 100 100">
  <rect fill="#000" width="100" height="100" rx="50"></rect>
  <path fill="#fff" d="M47.62 40.54L30.78 40.54L30.78 47.94L45.61 47.94L45.61 55.28L30.78 55.28L30.78 66.80L21.27 66.80L21.27 33.20L47.62 33.20L47.62 40.54ZM63.85 67.47Q59.77 67.47 55.93 66.46Q52.09 65.46 49.69 63.78L49.69 63.78L52.81 56.77Q55.06 58.26 58.04 59.17Q61.02 60.08 63.90 60.08L63.90 60.08Q69.37 60.08 69.37 57.34L69.37 57.34Q69.37 55.90 67.81 55.21Q66.25 54.51 62.79 53.74L62.79 53.74Q59.00 52.93 56.46 51.99Q53.91 51.06 52.09 48.99Q50.26 46.93 50.26 43.42L50.26 43.42Q50.26 40.35 51.94 37.88Q53.62 35.41 56.96 33.97Q60.30 32.53 65.14 32.53L65.14 32.53Q68.46 32.53 71.67 33.27Q74.89 34.02 77.34 35.46L77.34 35.46L74.41 42.51Q69.61 39.92 65.10 39.92L65.10 39.92Q62.26 39.92 60.97 40.76Q59.67 41.60 59.67 42.94L59.67 42.94Q59.67 44.29 61.21 44.96Q62.74 45.63 66.15 46.35L66.15 46.35Q69.99 47.17 72.51 48.10Q75.03 49.04 76.88 51.08Q78.73 53.12 78.73 56.62L78.73 56.62Q78.73 59.65 77.05 62.10Q75.37 64.54 72.01 66.01Q68.65 67.47 63.85 67.47L63.85 67.47Z"></path>
  <style>
    @media (prefers-color-scheme:dark){:root{filter:invert(100%)}}
  </style>
</svg>
